<?xml version="1.0" encoding="utf-8"?>
<!-- Generator: Adobe Illustrator 18.0.0, SVG Export Plug-In . SVG Version: 6.00 Build 0)  -->
<!DOCTYPE svg PUBLIC "-//W3C//DTD SVG 1.1//EN" "http://www.w3.org/Graphics/SVG/1.1/DTD/svg11.dtd">
<svg version="1.1" id="Arrow_1_" xmlns="http://www.w3.org/2000/svg" xmlns:xlink="http://www.w3.org/1999/xlink" x="0px" y="0px"
	 width="500px" height="500px" viewBox="0 0 500 500" enable-background="new 0 0 500 500" xml:space="preserve">
  <metadata>
    <?xpacket begin="﻿" id="W5M0MpCehiHzreSzNTczkc9d"?>
    <x:xmpmeta xmlns:x="adobe:ns:meta/" x:xmptk="Adobe XMP Core 5.6-c011 79.156380, 2014/06/19-23:40:37        ">
     <rdf:RDF xmlns:rdf="http://www.w3.org/1999/02/22-rdf-syntax-ns#">
      <rdf:Description rdf:about=""
        xmlns:xmpMM="http://ns.adobe.com/xap/1.0/mm/"
        xmlns:stEvt="http://ns.adobe.com/xap/1.0/sType/ResourceEvent#"
        xmlns:xmp="http://ns.adobe.com/xap/1.0/"
        xmlns:xmpRights="http://ns.adobe.com/xap/1.0/rights/"
        xmlns:dc="http://purl.org/dc/elements/1.1/"
       xmpMM:DocumentID="xmp.did:3f4e1d837c8019a2822f4ec86cc4bfce"
       xmpMM:OriginalDocumentID="xmp.did:3f4e1d837c8019a2822f4ec86cc4bfce"
       xmpMM:InstanceID="xmp.iid:3f4e1d837c8019a2822f4ec86cc4bfce"
       xmp:ModifyDate="2015-04-16T18:49:16+02:00"
       xmp:MetadataDate="2015-04-16T18:49:16+02:00"
       xmpRights:Marked="True"
       xmpRights:WebStatement="http://www.adobe.com/legal/general-terms.html">
       <xmpMM:History>
        <rdf:Seq>
         <rdf:li
          stEvt:action="saved"
          stEvt:instanceID="xmp.iid:3f4e1d837c8019a2822f4ec86cc4bfce"
          stEvt:when="2015-04-16T18:49:16+02:00"/>
        </rdf:Seq>
       </xmpMM:History>
       <xmpRights:UsageTerms>
        <rdf:Alt>
         <rdf:li xml:lang="x-default">This work is licensed under the Adobe General Terms of Use http://www.adobe.com/legal/general-terms.html.</rdf:li>
        </rdf:Alt>
       </xmpRights:UsageTerms>
       <dc:publisher>
        <rdf:Bag>
         <rdf:li>Adobe Systems Incorporated</rdf:li>
        </rdf:Bag>
       </dc:publisher>
      </rdf:Description>
     </rdf:RDF>
    </x:xmpmeta>
    <?xpacket end="r"?>
  </metadata>
<g>
	<path fill="#B2D000" d="M256.9,403.5C256.8,403.5,256.8,403.5,256.9,403.5c1.1,1.8,2.5,3.5,3.7,5.1
		C259.4,406.8,258.2,405.2,256.9,403.5z"/>
	<path fill="#B2D000" d="M392.4,481.3c-14.2-2.9-27.4-7-41.5-11.2c-31.1-9.2-49.2-22.1-71.4-48.3c-5.8-6.7-10.4-13.8-14.2-21.3
		c5.4-2,10.6-4.3,15.8-6.7c17.9-8.9,36.3-21,44-40.1c2.6-6.7,1.7-12.7,2.8-19.3c2.8-16.1,16.2-29.6,25.3-42.7
		c25.4-37.2,13-81.2-5.8-117.9c-18.8-36.9-46-69.5-75.8-97.9c-19.9-18.8-41.5-36.3-64.6-51.2c-6-3.8-38-17.8-40.3-24.7
		c9,25.6,10,53.2,2.6,79.2c-7,24.4-20.5,45.2-31.6,67.7c-9.7,19.8-6.9,40.6-12.9,60.8c-4.7,15.8-10.3,22.4-22.2,33.5
		c-11.6,10.9-21.6,17.6-22.8,34.3c-1.2,16.4,3.4,33.4,10.3,47.9c14.9,31.2,42.7,56.5,73.1,72.8c28.6,15.3,60.5,16.5,90.5,8.1
		c-5.4-7.7-10.3-16.7-12.3-22.8c-2-6-2.6-12.3-3.2-18.2l-0.3-2.3c-0.6-5.7-1.5-11.5-2.3-17c-0.9-6.1-1.8-12.4-2.5-18.7l0,0
		c-2-20.5-6.4-35.7-12.9-44c-4.7-6.1-7-11.2-10.6-19v-0.2c-5.4-11.6-15.9-17.8-27.1-24c-3.1-1.7-6.1-3.5-9.2-5.4
		c-0.8-0.5-1.1-1.5-0.6-2.5c0.5-0.8,1.5-1.1,2.5-0.6c2.9,1.8,6.1,3.7,9,5.4c11.2,6.3,22.7,12.9,28.5,25.6v0.2
		c3.4,7.5,5.7,12.6,10.1,18.2c4.1,5.4,7.4,13,9.8,23.1c0.2-2.8,0.5-5.4,0.6-8c0.8-10.4,1.7-21.1,0-31.9c-0.5-3.1-0.9-6.3-1.4-9.7
		c-1.7-11.8-3.4-24-6.9-34.9c-1.7-5.1-3.8-10.1-6.1-14.9c-3.4-7.4-6.9-15-8.3-23.3c-2.3-13.9-1.4-29.1-0.3-43.5
		c0.2-0.9,0.9-1.7,1.8-1.5c0.9,0.2,1.7,0.9,1.5,1.8c-1.2,14.1-2.1,29,0.2,42.6c1.4,8,4.7,15.3,8,22.5c2.3,4.9,4.6,10,6.3,15.3
		c3.5,11.2,5.4,23.4,7,35.4c0.5,3.2,0.9,6.4,1.4,9.5c1.7,11,0.8,22.1,0,32.6c-0.6,8.1-1.4,16.5-0.8,24.8c0.5,7.8,1.7,16.1,2.9,23.9
		c0.9,5.7,1.7,11.5,2.3,17.2l0.3,2.3c0.6,5.8,1.2,11.9,3.1,17.5c2,6.1,7,15.3,12.4,22.8c0,0,2.6,3.4,3.8,5.1l0,0l0,0
		c1.4,1.8,2.8,3.7,4.1,5.5c20.7,26.7,45.2,52.2,76.9,64.5c15.8,6.1,32.5,10.7,48.9,14.7c11.3,2.8,27.9,15.5,30.2-0.6
		C422.8,478.4,407.2,484.4,392.4,481.3z"/>
</g>
</svg>
