<?xml version="1.0" encoding="utf-8"?>
<!-- Generator: Adobe Illustrator 17.1.0, SVG Export Plug-In . SVG Version: 6.00 Build 0)  -->
<!DOCTYPE svg PUBLIC "-//W3C//DTD SVG 1.1 Basic//EN" "http://www.w3.org/Graphics/SVG/1.1/DTD/svg11-basic.dtd">
<svg version="1.1" baseProfile="basic" id="Layer_1"
	 xmlns="http://www.w3.org/2000/svg" xmlns:xlink="http://www.w3.org/1999/xlink" x="0px" y="0px" width="500px" height="500px"
	 viewBox="0 0 500 500" xml:space="preserve">
  <metadata>
    <?xpacket begin="﻿" id="W5M0MpCehiHzreSzNTczkc9d"?>
    <x:xmpmeta xmlns:x="adobe:ns:meta/" x:xmptk="Adobe XMP Core 5.6-c011 79.156380, 2014/06/19-23:40:37        ">
     <rdf:RDF xmlns:rdf="http://www.w3.org/1999/02/22-rdf-syntax-ns#">
      <rdf:Description rdf:about=""
        xmlns:xmpMM="http://ns.adobe.com/xap/1.0/mm/"
        xmlns:stEvt="http://ns.adobe.com/xap/1.0/sType/ResourceEvent#"
        xmlns:xmp="http://ns.adobe.com/xap/1.0/"
        xmlns:xmpRights="http://ns.adobe.com/xap/1.0/rights/"
        xmlns:dc="http://purl.org/dc/elements/1.1/"
       xmpMM:DocumentID="xmp.did:b08584b3a9332f96ccd039146ccc6e23"
       xmpMM:OriginalDocumentID="xmp.did:b08584b3a9332f96ccd039146ccc6e23"
       xmpMM:InstanceID="xmp.iid:b08584b3a9332f96ccd039146ccc6e23"
       xmp:ModifyDate="2015-04-16T10:33:08+02:00"
       xmp:MetadataDate="2015-04-16T10:33:08+02:00"
       xmpRights:Marked="True"
       xmpRights:WebStatement="http://www.adobe.com/legal/general-terms.html">
       <xmpMM:History>
        <rdf:Seq>
         <rdf:li
          stEvt:action="saved"
          stEvt:instanceID="xmp.iid:b08584b3a9332f96ccd039146ccc6e23"
          stEvt:when="2015-04-16T10:33:08+02:00"/>
        </rdf:Seq>
       </xmpMM:History>
       <xmpRights:UsageTerms>
        <rdf:Alt>
         <rdf:li xml:lang="x-default">This work is licensed under the Adobe General Terms of Use http://www.adobe.com/legal/general-terms.html.</rdf:li>
        </rdf:Alt>
       </xmpRights:UsageTerms>
       <dc:publisher>
        <rdf:Bag>
         <rdf:li>Adobe Systems Incorporated</rdf:li>
        </rdf:Bag>
       </dc:publisher>
      </rdf:Description>
     </rdf:RDF>
    </x:xmpmeta>
    <?xpacket end="r"?>
  </metadata>
<g>
	<path fill="#FFFFFF" d="M173.4,62.9c-60.5,0-109.6,48.7-109.6,108.8c0,60.1,49.1,108.8,109.6,108.8c60.5,0,109.6-48.7,109.6-108.8
		C282.9,111.6,233.9,62.9,173.4,62.9z"/>
	<path fill="#231F20" d="M500,439.8L320.8,255.1c13.6-24.6,21.3-52.8,21.3-82.8C342.1,77.6,265.5,0.9,171,0.9
		C76.6,0.9,0,77.6,0,172.3c0,94.7,76.6,171.4,171,171.4c33.6,0,64.9-9.9,91.3-26.6l176.7,182.1L500,439.8z M173.4,280.5
		c-60.5,0-109.6-48.7-109.6-108.8c0-60.1,49.1-108.8,109.6-108.8c60.5,0,109.6,48.7,109.6,108.8
		C282.9,231.8,233.9,280.5,173.4,280.5z"/>
</g>
</svg>
